<svg xmlns="http://www.w3.org/2000/svg" width="38" height="20" viewBox="0 0 38 20" fill="none">
  <path d="M2.81091 1.77032C2.55415 2.14871 2.1217 2.47305 1.5406 2.77035C0.945992 3.06766 0.432444 3.27037 0 3.40551V2.28385C0.472986 2.14871 1 1.87843 1.5811 1.4595C2.1622 1.04057 2.6487 0.554069 3.01357 0H4.13525V19.7033H2.82436V1.77032H2.81091Z" fill="white" fill-opacity="0.24"/>
  <path d="M10.1079 17.1626H11.5404V19.6897H10.1079V17.1626Z" fill="white" fill-opacity="0.24"/>
  <path d="M18.9463 0H20.4734L24.6356 19.7033H23.2977L22.2706 14.2572H17.1624L16.1218 19.7033H14.811L18.9463 0ZM22.1085 13.2842L19.73 1.60816L17.3651 13.2842H22.1085Z" fill="white" fill-opacity="0.24"/>
  <path d="M31.5405 0H33.0676L37.2299 19.7033H35.892L34.865 14.2572H29.7568L28.7162 19.7033H27.4053L31.5405 0ZM34.7028 13.2842L32.3243 1.60816L29.9594 13.2842H34.7028Z" fill="white" fill-opacity="0.24"/>
</svg>