<svg width="70" height="60" viewBox="0 0 70 60" fill="none" xmlns="http://www.w3.org/2000/svg">
<g id="Group 1171276204">
<g id="Subtract" filter="url(#filter0_b_1_583)">
<mask id="path-1-inside-1_1_583" fill="white">
<path fill-rule="evenodd" clip-rule="evenodd" d="M70 0H16L0 16V60H70V0Z"/>
</mask>
<path fill-rule="evenodd" clip-rule="evenodd" d="M70 0H16L0 16V60H70V0Z" fill="#38384D" fill-opacity="0.4"/>
<path d="M16 0V-2H15.1716L14.5858 -1.41421L16 0ZM70 0H72V-2H70V0ZM0 16L-1.41421 14.5858L-2 15.1716V16H0ZM0 60H-2V62H0V60ZM70 60V62H72V60H70ZM16 2H70V-2H16V2ZM14.5858 -1.41421L-1.41421 14.5858L1.41421 17.4142L17.4142 1.41421L14.5858 -1.41421ZM2 60V16H-2V60H2ZM70 58H0V62H70V58ZM68 0V60H72V0H68Z" fill="url(#paint0_linear_1_583)" mask="url(#path-1-inside-1_1_583)"/>
</g>
<g id="Group">
<g id="Group_2">
<path id="Vector" d="M24.8036 34.6986V25.283C24.8036 24.6778 25.1207 24.1301 25.6492 23.8227L33.8078 19.1149C34.3267 18.8171 34.9705 18.8171 35.4894 19.1149L43.648 23.8227C44.1669 24.1205 44.4937 24.6778 44.4937 25.283V34.6986C44.4937 35.3039 44.1765 35.8515 43.648 36.1589L35.4894 40.8667C34.9705 41.1645 34.3267 41.1645 33.8078 40.8667L25.6492 36.1589C25.1303 35.8611 24.8132 35.3039 24.8132 34.6986H24.8036Z" fill="#21213B"/>
<g id="Group_3">
<g id="Group_4">
<g id="Group_5">
<path id="Vector_2" d="M36.4344 28.1652L35.2716 24.9755C35.2428 24.889 35.2428 24.7929 35.2716 24.6968L37.2704 19.2109L39.5863 20.5463L36.8092 28.1652C36.7419 28.3382 36.5017 28.3382 36.4344 28.1652Z" fill="#BCD4D3" fill-opacity="0.5"/>
</g>
<g id="Group_6">
<path id="Vector_3" d="M38.7612 33.5265C38.6939 33.6995 38.4536 33.6995 38.3864 33.5265L37.2236 30.3368C37.1948 30.2503 37.1948 30.1542 37.2236 30.0582L40.5005 21.075L42.8164 22.4105L38.7612 33.5169V33.5265Z" fill="#BCD4D3" fill-opacity="0.5"/>
</g>
</g>
</g>
<g id="Group_7">
<path id="Vector_4" d="M34.6474 40.5108C34.7051 40.5108 34.7628 40.4916 34.8108 40.4628L43.6324 35.3707C43.7381 35.3131 43.7958 35.1978 43.7958 35.0825V24.8983C43.7958 24.783 43.7285 24.6677 43.6324 24.6101L34.8108 19.518C34.7628 19.4892 34.7051 19.47 34.6474 19.47C34.5898 19.47 34.5321 19.4892 34.4841 19.518L25.6625 24.6101C25.5568 24.6677 25.4991 24.783 25.4991 24.8983V35.0921C25.4991 35.2074 25.5664 35.3227 25.6625 35.3803L34.4841 40.4724C34.5321 40.5012 34.5898 40.5204 34.6474 40.5204V40.5108ZM34.6474 42C34.3303 42 34.0228 41.9231 33.7345 41.7598L24.9129 36.6677C24.3459 36.3411 24 35.7454 24 35.0921V24.9079C24 24.2546 24.3459 23.6589 24.9129 23.3323L33.7345 18.2402C34.0132 18.0769 34.3303 18 34.6474 18C34.9646 18 35.2721 18.0769 35.5604 18.2402L44.382 23.3323C44.9489 23.6589 45.2949 24.2546 45.2949 24.9079V35.0921C45.2949 35.7454 44.9489 36.3411 44.382 36.6677L35.5508 41.7598C35.2721 41.9231 34.955 42 34.6378 42H34.6474Z" fill="white"/>
</g>
<path id="Vector_5" d="M28.808 21.0637L29.6249 23.2927L31.2585 21.938L29.7306 20.5353L28.808 21.0637Z" fill="white"/>
<g id="Group_8">
<path id="Vector_6" d="M33.8934 35.8138H31.6543C31.491 35.8138 31.3372 35.7081 31.2796 35.5543L26.4844 22.411L28.8003 21.0756L34.0856 35.5543C34.1336 35.6889 34.0375 35.8234 33.903 35.8234L33.8934 35.8138Z" fill="white"/>
<path id="Vector_7" d="M37.8167 35.8139H35.5777C35.4143 35.8139 35.2606 35.7082 35.2029 35.5545L29.7254 20.5473L32.0413 19.2118L37.9993 35.5545C38.0474 35.689 37.9513 35.8235 37.8167 35.8235V35.8139Z" fill="white"/>
</g>
</g>
</g>
</g>
<defs>
<filter id="filter0_b_1_583" x="-12" y="-12" width="94" height="84" filterUnits="userSpaceOnUse" color-interpolation-filters="sRGB">
<feFlood flood-opacity="0" result="BackgroundImageFix"/>
<feGaussianBlur in="BackgroundImageFix" stdDeviation="6"/>
<feComposite in2="SourceAlpha" operator="in" result="effect1_backgroundBlur_1_583"/>
<feBlend mode="normal" in="SourceGraphic" in2="effect1_backgroundBlur_1_583" result="shape"/>
</filter>
<linearGradient id="paint0_linear_1_583" x1="-2.58193e-06" y1="70.0005" x2="53.3138" y2="13.0982" gradientUnits="userSpaceOnUse">
<stop stop-color="white" stop-opacity="0.38"/>
<stop offset="1" stop-color="white" stop-opacity="0"/>
</linearGradient>
</defs>
</svg>
