<svg width="70" height="60" viewBox="0 0 70 60" fill="none" xmlns="http://www.w3.org/2000/svg">
<g id="Group 1171276201">
<g id="Subtract" filter="url(#filter0_b_1_558)">
<mask id="path-1-inside-1_1_558" fill="white">
<path fill-rule="evenodd" clip-rule="evenodd" d="M70 0H16L0 16V60H70V0Z"/>
</mask>
<path fill-rule="evenodd" clip-rule="evenodd" d="M70 0H16L0 16V60H70V0Z" fill="#38384D" fill-opacity="0.4"/>
<path d="M16 0V-2H15.1716L14.5858 -1.41421L16 0ZM70 0H72V-2H70V0ZM0 16L-1.41421 14.5858L-2 15.1716V16H0ZM0 60H-2V62H0V60ZM70 60V62H72V60H70ZM16 2H70V-2H16V2ZM14.5858 -1.41421L-1.41421 14.5858L1.41421 17.4142L17.4142 1.41421L14.5858 -1.41421ZM2 60V16H-2V60H2ZM70 58H0V62H70V58ZM68 0V60H72V0H68Z" fill="url(#paint0_linear_1_558)" mask="url(#path-1-inside-1_1_558)"/>
</g>
<g id="Group">
<path id="Vector" opacity="0.8" d="M35.4999 42V33.1283L42.9983 29.7776L35.4999 42Z" fill="white"/>
<path id="Vector_2" d="M35.4995 42L28 29.7776L35.4995 33.1283V42Z" fill="white"/>
<path id="Vector_3" opacity="0.8" d="M35.4999 24.0285V18.0003L43.0033 28.3813L35.4999 24.0285Z" fill="white"/>
<path id="Vector_4" d="M35.4995 18.0003V24.0295L28 28.3813L35.4995 18.0003Z" fill="white"/>
<path id="Vector_5" opacity="0.5" d="M35.4999 25.4232L42.9983 29.7771L35.4999 33.1257V25.4232Z" fill="white"/>
<path id="Vector_6" opacity="0.8" d="M28 29.7771L35.4995 25.4232V33.1257L28 29.7771Z" fill="white"/>
</g>
</g>
<defs>
<filter id="filter0_b_1_558" x="-12" y="-12" width="94" height="84" filterUnits="userSpaceOnUse" color-interpolation-filters="sRGB">
<feFlood flood-opacity="0" result="BackgroundImageFix"/>
<feGaussianBlur in="BackgroundImageFix" stdDeviation="6"/>
<feComposite in2="SourceAlpha" operator="in" result="effect1_backgroundBlur_1_558"/>
<feBlend mode="normal" in="SourceGraphic" in2="effect1_backgroundBlur_1_558" result="shape"/>
</filter>
<linearGradient id="paint0_linear_1_558" x1="-2.58193e-06" y1="70.0005" x2="53.3138" y2="13.0982" gradientUnits="userSpaceOnUse">
<stop stop-color="white" stop-opacity="0.38"/>
<stop offset="1" stop-color="white" stop-opacity="0"/>
</linearGradient>
</defs>
</svg>
