<svg width="70" height="60" viewBox="0 0 70 60" fill="none" xmlns="http://www.w3.org/2000/svg">
<g id="Group 1171276202">
<g id="Subtract" filter="url(#filter0_b_1_569)">
<mask id="path-1-inside-1_1_569" fill="white">
<path fill-rule="evenodd" clip-rule="evenodd" d="M70 0H16L0 16V60H70V0Z"/>
</mask>
<path fill-rule="evenodd" clip-rule="evenodd" d="M70 0H16L0 16V60H70V0Z" fill="#38384D" fill-opacity="0.4"/>
<path d="M16 0V-2H15.1716L14.5858 -1.41421L16 0ZM70 0H72V-2H70V0ZM0 16L-1.41421 14.5858L-2 15.1716V16H0ZM0 60H-2V62H0V60ZM70 60V62H72V60H70ZM16 2H70V-2H16V2ZM14.5858 -1.41421L-1.41421 14.5858L1.41421 17.4142L17.4142 1.41421L14.5858 -1.41421ZM2 60V16H-2V60H2ZM70 58H0V62H70V58ZM68 0V60H72V0H68Z" fill="url(#paint0_linear_1_569)" mask="url(#path-1-inside-1_1_569)"/>
</g>
<path id="Vector" d="M23 29.0244C23.1195 29.0314 23.1802 29.0188 23.1822 28.9868C28.4013 28.9848 33.6228 28.9848 38.8469 28.9868C38.9016 28.9868 38.9285 29.0138 38.9275 29.0679V30.9366C38.9275 30.9867 38.9026 31.0117 38.8528 31.0117H23.1777C23.118 31.0117 23.0916 31.0412 23.0986 31.1002L23.1523 31.5655C24.7757 42.3652 38.3376 45.819 44.7669 36.9541C48.4094 31.9318 47.4715 25.0152 42.8597 20.94C37.5267 16.2269 29.2396 17.3391 25.1939 23.1405C24.0529 24.7755 23.3216 26.7368 23 29.0244Z" fill="white"/>
</g>
<defs>
<filter id="filter0_b_1_569" x="-12" y="-12" width="94" height="84" filterUnits="userSpaceOnUse" color-interpolation-filters="sRGB">
<feFlood flood-opacity="0" result="BackgroundImageFix"/>
<feGaussianBlur in="BackgroundImageFix" stdDeviation="6"/>
<feComposite in2="SourceAlpha" operator="in" result="effect1_backgroundBlur_1_569"/>
<feBlend mode="normal" in="SourceGraphic" in2="effect1_backgroundBlur_1_569" result="shape"/>
</filter>
<linearGradient id="paint0_linear_1_569" x1="-2.58193e-06" y1="70.0005" x2="53.3138" y2="13.0982" gradientUnits="userSpaceOnUse">
<stop stop-color="white" stop-opacity="0.38"/>
<stop offset="1" stop-color="white" stop-opacity="0"/>
</linearGradient>
</defs>
</svg>
