<svg width="182" height="62" viewBox="0 0 182 62" fill="none" xmlns="http://www.w3.org/2000/svg">
<rect x="27.5" y="4.5" width="154" height="57" stroke="white"/>
<g filter="url(#filter0_b_1_511)">
<mask id="path-2-inside-1_1_511" fill="white">
<path fill-rule="evenodd" clip-rule="evenodd" d="M178 0H16L0 16V57H178V0Z"/>
</mask>
<path fill-rule="evenodd" clip-rule="evenodd" d="M178 0H16L0 16V57H178V0Z" fill="white"/>
<path d="M16 0V-1H15.5858L15.2929 -0.707107L16 0ZM178 0H179V-1H178V0ZM0 16L-0.707107 15.2929L-1 15.5858V16H0ZM0 57H-1V58H0V57ZM178 57V58H179V57H178ZM16 1H178V-1H16V1ZM15.2929 -0.707107L-0.707107 15.2929L0.707107 16.7071L16.7071 0.707107L15.2929 -0.707107ZM1 57V16H-1V57H1ZM178 56H0V58H178V56ZM177 0V57H179V0H177Z" fill="white" mask="url(#path-2-inside-1_1_511)"/>
</g>
<path d="M35.736 34V32.144H37.208V24.656H35.736V22.8H40.344C41.848 22.8 42.9893 23.184 43.768 23.952C44.5573 24.7093 44.952 25.84 44.952 27.344V29.456C44.952 30.96 44.5573 32.096 43.768 32.864C42.9893 33.6213 41.848 34 40.344 34H35.736ZM39.32 32.08H40.376C41.2293 32.08 41.8533 31.856 42.248 31.408C42.6427 30.96 42.84 30.3307 42.84 29.52V27.28C42.84 26.4587 42.6427 25.8293 42.248 25.392C41.8533 24.944 41.2293 24.72 40.376 24.72H39.32V32.08ZM49.2403 34.224C48.6749 34.224 48.1683 34.128 47.7203 33.936C47.2723 33.7333 46.9149 33.4453 46.6483 33.072C46.3923 32.688 46.2643 32.224 46.2643 31.68C46.2643 31.136 46.3923 30.6827 46.6483 30.32C46.9149 29.9467 47.2776 29.6693 47.7363 29.488C48.2056 29.296 48.7389 29.2 49.3363 29.2H51.5123V28.752C51.5123 28.3787 51.3949 28.0747 51.1603 27.84C50.9256 27.5947 50.5523 27.472 50.0403 27.472C49.5389 27.472 49.1656 27.5893 48.9203 27.824C48.6749 28.048 48.5149 28.3413 48.4403 28.704L46.5843 28.08C46.7123 27.6747 46.9149 27.3067 47.1923 26.976C47.4803 26.6347 47.8589 26.3627 48.3283 26.16C48.8083 25.9467 49.3896 25.84 50.0723 25.84C51.1176 25.84 51.9443 26.1013 52.5523 26.624C53.1603 27.1467 53.4643 27.904 53.4643 28.896V31.856C53.4643 32.176 53.6136 32.336 53.9123 32.336H54.5523V34H53.2083C52.8136 34 52.4883 33.904 52.2323 33.712C51.9763 33.52 51.8483 33.264 51.8483 32.944V32.928H51.5443C51.5016 33.056 51.4056 33.2267 51.2563 33.44C51.1069 33.6427 50.8723 33.824 50.5523 33.984C50.2323 34.144 49.7949 34.224 49.2403 34.224ZM49.5923 32.592C50.1576 32.592 50.6163 32.4373 50.9683 32.128C51.3309 31.808 51.5123 31.3867 51.5123 30.864V30.704H49.4803C49.1069 30.704 48.8136 30.784 48.6003 30.944C48.3869 31.104 48.2803 31.328 48.2803 31.616C48.2803 31.904 48.3923 32.1387 48.6163 32.32C48.8403 32.5013 49.1656 32.592 49.5923 32.592ZM59.2598 34.224C58.2251 34.224 57.3771 34 56.7158 33.552C56.0544 33.104 55.6544 32.464 55.5158 31.632L57.3718 31.152C57.4464 31.5253 57.5691 31.8187 57.7398 32.032C57.9211 32.2453 58.1398 32.4 58.3958 32.496C58.6624 32.5813 58.9504 32.624 59.2598 32.624C59.7291 32.624 60.0758 32.544 60.2998 32.384C60.5238 32.2133 60.6358 32.0053 60.6358 31.76C60.6358 31.5147 60.5291 31.328 60.3158 31.2C60.1024 31.0613 59.7611 30.9493 59.2918 30.864L58.8438 30.784C58.2891 30.6773 57.7824 30.5333 57.3238 30.352C56.8651 30.16 56.4971 29.8987 56.2198 29.568C55.9424 29.2373 55.8038 28.8107 55.8038 28.288C55.8038 27.4987 56.0918 26.896 56.6678 26.48C57.2438 26.0533 58.0011 25.84 58.9398 25.84C59.8251 25.84 60.5611 26.0373 61.1478 26.432C61.7344 26.8267 62.1184 27.344 62.2998 27.984L60.4278 28.56C60.3424 28.1547 60.1664 27.8667 59.8998 27.696C59.6438 27.5253 59.3238 27.44 58.9398 27.44C58.5558 27.44 58.2624 27.5093 58.0598 27.648C57.8571 27.776 57.7558 27.9573 57.7558 28.192C57.7558 28.448 57.8624 28.64 58.0758 28.768C58.2891 28.8853 58.5771 28.976 58.9398 29.04L59.3878 29.12C59.9851 29.2267 60.5238 29.3707 61.0038 29.552C61.4944 29.7227 61.8784 29.9733 62.1558 30.304C62.4438 30.624 62.5878 31.0613 62.5878 31.616C62.5878 32.448 62.2838 33.0933 61.6758 33.552C61.0784 34 60.2731 34.224 59.2598 34.224ZM64.3544 34V22.8H66.3704V27.04H66.6584C66.7437 26.8693 66.877 26.6987 67.0584 26.528C67.2397 26.3573 67.4797 26.2187 67.7784 26.112C68.0877 25.9947 68.477 25.936 68.9464 25.936C69.565 25.936 70.1037 26.08 70.5624 26.368C71.0317 26.6453 71.3944 27.0347 71.6504 27.536C71.9064 28.0267 72.0344 28.6027 72.0344 29.264V34H70.0184V29.424C70.0184 28.8267 69.869 28.3787 69.5704 28.08C69.2824 27.7813 68.8664 27.632 68.3224 27.632C67.7037 27.632 67.2237 27.84 66.8824 28.256C66.541 28.6613 66.3704 29.232 66.3704 29.968V34H64.3544ZM78.9818 34.224C78.2671 34.224 77.7178 34.1013 77.3338 33.856C76.9498 33.6107 76.6671 33.3387 76.4858 33.04H76.1978V34H74.2138V22.8H76.2298V26.976H76.5178C76.6351 26.784 76.7898 26.6027 76.9818 26.432C77.1844 26.2613 77.4458 26.1227 77.7658 26.016C78.0964 25.8987 78.5018 25.84 78.9818 25.84C79.6218 25.84 80.2138 26 80.7578 26.32C81.3018 26.6293 81.7391 27.088 82.0698 27.696C82.4004 28.304 82.5658 29.04 82.5658 29.904V30.16C82.5658 31.024 82.4004 31.76 82.0698 32.368C81.7391 32.976 81.3018 33.44 80.7578 33.76C80.2138 34.0693 79.6218 34.224 78.9818 34.224ZM78.3738 32.464C78.9924 32.464 79.5098 32.2667 79.9258 31.872C80.3418 31.4667 80.5498 30.88 80.5498 30.112V29.952C80.5498 29.184 80.3418 28.6027 79.9258 28.208C79.5204 27.8027 79.0031 27.6 78.3738 27.6C77.7551 27.6 77.2378 27.8027 76.8218 28.208C76.4058 28.6027 76.1978 29.184 76.1978 29.952V30.112C76.1978 30.88 76.4058 31.4667 76.8218 31.872C77.2378 32.2667 77.7551 32.464 78.3738 32.464ZM88.1929 34.224C87.4035 34.224 86.6942 34.064 86.0649 33.744C85.4355 33.424 84.9395 32.96 84.5769 32.352C84.2142 31.744 84.0329 31.0133 84.0329 30.16V29.904C84.0329 29.0507 84.2142 28.32 84.5769 27.712C84.9395 27.104 85.4355 26.64 86.0649 26.32C86.6942 26 87.4035 25.84 88.1929 25.84C88.9822 25.84 89.6915 26 90.3209 26.32C90.9502 26.64 91.4462 27.104 91.8089 27.712C92.1715 28.32 92.3529 29.0507 92.3529 29.904V30.16C92.3529 31.0133 92.1715 31.744 91.8089 32.352C91.4462 32.96 90.9502 33.424 90.3209 33.744C89.6915 34.064 88.9822 34.224 88.1929 34.224ZM88.1929 32.432C88.8115 32.432 89.3235 32.2347 89.7289 31.84C90.1342 31.4347 90.3369 30.8587 90.3369 30.112V29.952C90.3369 29.2053 90.1342 28.6347 89.7289 28.24C89.3342 27.8347 88.8222 27.632 88.1929 27.632C87.5742 27.632 87.0622 27.8347 86.6569 28.24C86.2515 28.6347 86.0489 29.2053 86.0489 29.952V30.112C86.0489 30.8587 86.2515 31.4347 86.6569 31.84C87.0622 32.2347 87.5742 32.432 88.1929 32.432ZM96.6778 34.224C96.1124 34.224 95.6058 34.128 95.1578 33.936C94.7098 33.7333 94.3524 33.4453 94.0858 33.072C93.8298 32.688 93.7018 32.224 93.7018 31.68C93.7018 31.136 93.8298 30.6827 94.0858 30.32C94.3524 29.9467 94.7151 29.6693 95.1738 29.488C95.6431 29.296 96.1764 29.2 96.7738 29.2H98.9498V28.752C98.9498 28.3787 98.8324 28.0747 98.5978 27.84C98.3631 27.5947 97.9898 27.472 97.4778 27.472C96.9764 27.472 96.6031 27.5893 96.3578 27.824C96.1124 28.048 95.9524 28.3413 95.8778 28.704L94.0218 28.08C94.1498 27.6747 94.3524 27.3067 94.6298 26.976C94.9178 26.6347 95.2964 26.3627 95.7658 26.16C96.2458 25.9467 96.8271 25.84 97.5098 25.84C98.5551 25.84 99.3818 26.1013 99.9898 26.624C100.598 27.1467 100.902 27.904 100.902 28.896V31.856C100.902 32.176 101.051 32.336 101.35 32.336H101.99V34H100.646C100.251 34 99.9258 33.904 99.6698 33.712C99.4138 33.52 99.2858 33.264 99.2858 32.944V32.928H98.9818C98.9391 33.056 98.8431 33.2267 98.6938 33.44C98.5444 33.6427 98.3098 33.824 97.9898 33.984C97.6698 34.144 97.2324 34.224 96.6778 34.224ZM97.0298 32.592C97.5951 32.592 98.0538 32.4373 98.4058 32.128C98.7684 31.808 98.9498 31.3867 98.9498 30.864V30.704H96.9178C96.5444 30.704 96.2511 30.784 96.0378 30.944C95.8244 31.104 95.7178 31.328 95.7178 31.616C95.7178 31.904 95.8298 32.1387 96.0538 32.32C96.2778 32.5013 96.6031 32.592 97.0298 32.592ZM103.464 34V26.064H105.448V26.96H105.736C105.853 26.64 106.045 26.4053 106.312 26.256C106.589 26.1067 106.909 26.032 107.272 26.032H108.232V27.824H107.24C106.728 27.824 106.306 27.9627 105.976 28.24C105.645 28.5067 105.48 28.9227 105.48 29.488V34H103.464ZM112.726 34.224C112.097 34.224 111.505 34.0693 110.95 33.76C110.406 33.44 109.969 32.976 109.638 32.368C109.308 31.76 109.142 31.024 109.142 30.16V29.904C109.142 29.04 109.308 28.304 109.638 27.696C109.969 27.088 110.406 26.6293 110.95 26.32C111.494 26 112.086 25.84 112.726 25.84C113.206 25.84 113.606 25.8987 113.926 26.016C114.257 26.1227 114.524 26.2613 114.726 26.432C114.929 26.6027 115.084 26.784 115.19 26.976H115.478V22.8H117.494V34H115.51V33.04H115.222C115.041 33.3387 114.758 33.6107 114.374 33.856C114.001 34.1013 113.452 34.224 112.726 34.224ZM113.334 32.464C113.953 32.464 114.47 32.2667 114.886 31.872C115.302 31.4667 115.51 30.88 115.51 30.112V29.952C115.51 29.184 115.302 28.6027 114.886 28.208C114.481 27.8027 113.964 27.6 113.334 27.6C112.716 27.6 112.198 27.8027 111.782 28.208C111.366 28.6027 111.158 29.184 111.158 29.952V30.112C111.158 30.88 111.366 31.4667 111.782 31.872C112.198 32.2667 112.716 32.464 113.334 32.464Z" fill="#0B0B1B"/>
<path d="M138.3 24.7L131.7 31.3" stroke="#0B0B1B" stroke-width="1.5" stroke-linecap="round" stroke-linejoin="round"/>
<path d="M133.667 24.6666L138.3 24.6993L138.333 29.3333" stroke="#0B0B1B" stroke-width="1.5" stroke-linecap="round" stroke-linejoin="round"/>
<defs>
<filter id="filter0_b_1_511" x="-20" y="-20" width="218" height="97" filterUnits="userSpaceOnUse" color-interpolation-filters="sRGB">
<feFlood flood-opacity="0" result="BackgroundImageFix"/>
<feGaussianBlur in="BackgroundImageFix" stdDeviation="10"/>
<feComposite in2="SourceAlpha" operator="in" result="effect1_backgroundBlur_1_511"/>
<feBlend mode="normal" in="SourceGraphic" in2="effect1_backgroundBlur_1_511" result="shape"/>
</filter>
</defs>
</svg>
