<svg width="314" height="467" viewBox="0 0 314 467" fill="none" xmlns="http://www.w3.org/2000/svg">
<path d="M388.581 83.2371C396.757 89.2457 404.827 95.5889 412.79 102.267C457.554 139.797 476.787 176.812 471.602 215.451C467.107 248.922 445.068 278.476 425.611 304.55C412.629 321.958 400.374 338.383 395.519 353.313C379.361 402.972 387.361 422.554 392.141 434.255C394.907 441.033 396.738 445.507 391.821 451.556C386.999 457.48 358.77 448.803 302.981 424.252C278.854 413.634 265.693 397.795 255.118 385.068C249.819 378.691 245.227 373.178 240.306 369.576L240.616 369.154L240.306 369.576C226.742 359.657 221.954 358.419 211.469 355.71C202.726 353.443 189.514 350.023 163.598 339.437C140.826 330.133 110.061 309.076 83.3093 284.474C68.0856 270.481 54.6118 255.858 43.2631 241.019C30.5574 224.406 20.8222 207.89 14.3351 191.922C2.31043 162.349 1.49928 135.162 11.9825 111.116C22.2891 87.4286 38.1303 67.0955 59.0704 50.6737C79.8656 34.3609 104.624 22.7397 132.658 16.1323C173.468 6.51348 219.369 8.31422 265.415 21.3489C289.953 28.2931 314.59 38.4192 338.631 51.445C355.989 60.885 372.678 71.5074 388.581 83.2371ZM283.243 411.66C289.521 416.27 296.288 420.173 303.42 423.298C328.789 434.463 348.106 442.193 362.464 446.935C383.179 453.767 389.433 452.859 391.013 450.885C395.541 445.31 393.991 441.526 391.176 434.637C386.342 422.802 378.253 402.997 394.529 352.978C399.437 337.915 411.743 321.393 424.773 303.917C444.144 277.963 466.096 248.502 470.554 215.298C475.686 177.049 456.568 140.333 412.105 103.049C388.319 83.1065 363.445 66.045 338.126 52.3381C314.145 39.3463 289.581 29.2448 265.116 22.3251C219.252 9.34711 173.531 7.52647 132.896 17.1301C105.01 23.7006 80.3889 35.2582 59.712 51.4721C38.9134 67.8166 23.1932 88.0012 12.9576 111.528C2.61372 135.308 3.4106 162.22 15.3446 191.526C21.797 207.404 31.4843 223.84 44.1332 240.379C55.4486 255.169 68.8797 269.731 84.0575 283.703C110.725 308.222 141.37 329.207 164.037 338.465C189.885 349.026 203.06 352.421 211.776 354.697C222.393 357.443 227.249 358.701 240.966 368.736L241.036 368.787C246.05 372.472 250.647 378.003 255.965 384.397C263.022 392.931 271.28 402.867 283.243 411.66Z" fill="white" fill-opacity="0.1"/>
</svg>
