<svg width="182" height="62" viewBox="0 0 182 62" fill="none" xmlns="http://www.w3.org/2000/svg">
<rect x="27.5" y="4.5" width="154" height="57" stroke="white"/>
<g filter="url(#filter0_b_1_503)">
<mask id="path-2-inside-1_1_503" fill="white">
<path fill-rule="evenodd" clip-rule="evenodd" d="M178 0H16L0 16V57H178V0Z"/>
</mask>
<path fill-rule="evenodd" clip-rule="evenodd" d="M178 0H16L0 16V57H178V0Z" fill="#A5A5A5" fill-opacity="0.18"/>
<path d="M16 0V-1H15.5858L15.2929 -0.707107L16 0ZM178 0H179V-1H178V0ZM0 16L-0.707107 15.2929L-1 15.5858V16H0ZM0 57H-1V58H0V57ZM178 57V58H179V57H178ZM16 1H178V-1H16V1ZM15.2929 -0.707107L-0.707107 15.2929L0.707107 16.7071L16.7071 0.707107L15.2929 -0.707107ZM1 57V16H-1V57H1ZM178 56H0V58H178V56ZM177 0V57H179V0H177Z" fill="white" mask="url(#path-2-inside-1_1_503)"/>
</g>
<path d="M39.272 34.224C38.12 34.224 37.2027 33.9093 36.52 33.28C35.848 32.6507 35.512 31.7707 35.512 30.64V29.584H37.624V30.64C37.624 31.1413 37.7627 31.536 38.04 31.824C38.3173 32.1013 38.7067 32.24 39.208 32.24C39.6773 32.24 40.04 32.1013 40.296 31.824C40.5627 31.5467 40.696 31.152 40.696 30.64V24.72H38.776V22.8H44.088V24.72H42.808V30.64C42.808 31.8027 42.4933 32.6933 41.864 33.312C41.2347 33.92 40.3707 34.224 39.272 34.224ZM49.0523 34.224C48.2629 34.224 47.5536 34.064 46.9243 33.744C46.2949 33.424 45.7989 32.96 45.4363 32.352C45.0736 31.744 44.8923 31.0133 44.8923 30.16V29.904C44.8923 29.0507 45.0736 28.32 45.4363 27.712C45.7989 27.104 46.2949 26.64 46.9243 26.32C47.5536 26 48.2629 25.84 49.0523 25.84C49.8416 25.84 50.5509 26 51.1803 26.32C51.8096 26.64 52.3056 27.104 52.6683 27.712C53.0309 28.32 53.2123 29.0507 53.2123 29.904V30.16C53.2123 31.0133 53.0309 31.744 52.6683 32.352C52.3056 32.96 51.8096 33.424 51.1803 33.744C50.5509 34.064 49.8416 34.224 49.0523 34.224ZM49.0523 32.432C49.6709 32.432 50.1829 32.2347 50.5883 31.84C50.9936 31.4347 51.1963 30.8587 51.1963 30.112V29.952C51.1963 29.2053 50.9936 28.6347 50.5883 28.24C50.1936 27.8347 49.6816 27.632 49.0523 27.632C48.4336 27.632 47.9216 27.8347 47.5163 28.24C47.1109 28.6347 46.9083 29.2053 46.9083 29.952V30.112C46.9083 30.8587 47.1109 31.4347 47.5163 31.84C47.9216 32.2347 48.4336 32.432 49.0523 32.432ZM55.0731 34V26.064H57.0891V34H55.0731ZM56.0811 25.136C55.7185 25.136 55.4091 25.0187 55.1531 24.784C54.9078 24.5493 54.7851 24.24 54.7851 23.856C54.7851 23.472 54.9078 23.1627 55.1531 22.928C55.4091 22.6933 55.7185 22.576 56.0811 22.576C56.4545 22.576 56.7638 22.6933 57.0091 22.928C57.2545 23.1627 57.3771 23.472 57.3771 23.856C57.3771 24.24 57.2545 24.5493 57.0091 24.784C56.7638 25.0187 56.4545 25.136 56.0811 25.136ZM59.3231 34V26.064H61.3071V27.104H61.5951C61.7231 26.8267 61.9631 26.5653 62.3151 26.32C62.6671 26.064 63.2005 25.936 63.9151 25.936C64.5338 25.936 65.0725 26.08 65.5311 26.368C66.0005 26.6453 66.3631 27.0347 66.6191 27.536C66.8751 28.0267 67.0031 28.6027 67.0031 29.264V34H64.9871V29.424C64.9871 28.8267 64.8378 28.3787 64.5391 28.08C64.2511 27.7813 63.8351 27.632 63.2911 27.632C62.6725 27.632 62.1925 27.84 61.8511 28.256C61.5098 28.6613 61.3391 29.232 61.3391 29.968V34H59.3231ZM73.181 34V22.8H77.789C78.493 22.8 79.1117 22.944 79.645 23.232C80.189 23.5093 80.6103 23.904 80.909 24.416C81.2183 24.928 81.373 25.536 81.373 26.24V26.464C81.373 27.1573 81.213 27.7653 80.893 28.288C80.5837 28.8 80.157 29.2 79.613 29.488C79.0797 29.7653 78.4717 29.904 77.789 29.904H75.293V34H73.181ZM75.293 27.984H77.581C78.0823 27.984 78.4877 27.8453 78.797 27.568C79.1063 27.2907 79.261 26.912 79.261 26.432V26.272C79.261 25.792 79.1063 25.4133 78.797 25.136C78.4877 24.8587 78.0823 24.72 77.581 24.72H75.293V27.984ZM86.4898 34.224C85.7004 34.224 84.9911 34.064 84.3618 33.744C83.7324 33.424 83.2364 32.96 82.8738 32.352C82.5111 31.744 82.3298 31.0133 82.3298 30.16V29.904C82.3298 29.0507 82.5111 28.32 82.8738 27.712C83.2364 27.104 83.7324 26.64 84.3618 26.32C84.9911 26 85.7004 25.84 86.4898 25.84C87.2791 25.84 87.9884 26 88.6178 26.32C89.2471 26.64 89.7431 27.104 90.1058 27.712C90.4684 28.32 90.6498 29.0507 90.6498 29.904V30.16C90.6498 31.0133 90.4684 31.744 90.1058 32.352C89.7431 32.96 89.2471 33.424 88.6178 33.744C87.9884 34.064 87.2791 34.224 86.4898 34.224ZM86.4898 32.432C87.1084 32.432 87.6204 32.2347 88.0258 31.84C88.4311 31.4347 88.6338 30.8587 88.6338 30.112V29.952C88.6338 29.2053 88.4311 28.6347 88.0258 28.24C87.6311 27.8347 87.1191 27.632 86.4898 27.632C85.8711 27.632 85.3591 27.8347 84.9538 28.24C84.5484 28.6347 84.3458 29.2053 84.3458 29.952V30.112C84.3458 30.8587 84.5484 31.4347 84.9538 31.84C85.3591 32.2347 85.8711 32.432 86.4898 32.432ZM92.5106 34V26.064H94.4946V26.96H94.7826C94.9 26.64 95.092 26.4053 95.3586 26.256C95.636 26.1067 95.956 26.032 96.3186 26.032H97.2786V27.824H96.2866C95.7746 27.824 95.3533 27.9627 95.0226 28.24C94.692 28.5067 94.5266 28.9227 94.5266 29.488V34H92.5106ZM101.894 34C101.372 34 100.945 33.84 100.614 33.52C100.294 33.1893 100.134 32.752 100.134 32.208V27.728H98.1504V26.064H100.134V23.6H102.15V26.064H104.326V27.728H102.15V31.856C102.15 32.176 102.3 32.336 102.598 32.336H104.134V34H101.894ZM108.615 34.224C108.05 34.224 107.543 34.128 107.095 33.936C106.647 33.7333 106.29 33.4453 106.023 33.072C105.767 32.688 105.639 32.224 105.639 31.68C105.639 31.136 105.767 30.6827 106.023 30.32C106.29 29.9467 106.653 29.6693 107.111 29.488C107.581 29.296 108.114 29.2 108.711 29.2H110.887V28.752C110.887 28.3787 110.77 28.0747 110.535 27.84C110.301 27.5947 109.927 27.472 109.415 27.472C108.914 27.472 108.541 27.5893 108.295 27.824C108.05 28.048 107.89 28.3413 107.815 28.704L105.959 28.08C106.087 27.6747 106.29 27.3067 106.567 26.976C106.855 26.6347 107.234 26.3627 107.703 26.16C108.183 25.9467 108.765 25.84 109.447 25.84C110.493 25.84 111.319 26.1013 111.927 26.624C112.535 27.1467 112.839 27.904 112.839 28.896V31.856C112.839 32.176 112.989 32.336 113.287 32.336H113.927V34H112.583C112.189 34 111.863 33.904 111.607 33.712C111.351 33.52 111.223 33.264 111.223 32.944V32.928H110.919C110.877 33.056 110.781 33.2267 110.631 33.44C110.482 33.6427 110.247 33.824 109.927 33.984C109.607 34.144 109.17 34.224 108.615 34.224ZM108.967 32.592C109.533 32.592 109.991 32.4373 110.343 32.128C110.706 31.808 110.887 31.3867 110.887 30.864V30.704H108.855C108.482 30.704 108.189 30.784 107.975 30.944C107.762 31.104 107.655 31.328 107.655 31.616C107.655 31.904 107.767 32.1387 107.991 32.32C108.215 32.5013 108.541 32.592 108.967 32.592ZM115.401 34V26.064H117.417V34H115.401ZM116.409 25.136C116.047 25.136 115.737 25.0187 115.481 24.784C115.236 24.5493 115.113 24.24 115.113 23.856C115.113 23.472 115.236 23.1627 115.481 22.928C115.737 22.6933 116.047 22.576 116.409 22.576C116.783 22.576 117.092 22.6933 117.337 22.928C117.583 23.1627 117.705 23.472 117.705 23.856C117.705 24.24 117.583 24.5493 117.337 24.784C117.092 25.0187 116.783 25.136 116.409 25.136Z" fill="white"/>
<path d="M138.3 24.7L131.7 31.3" stroke="white" stroke-width="1.5" stroke-linecap="round" stroke-linejoin="round"/>
<path d="M133.667 24.6666L138.3 24.6993L138.333 29.3333" stroke="white" stroke-width="1.5" stroke-linecap="round" stroke-linejoin="round"/>
<defs>
<filter id="filter0_b_1_503" x="-20" y="-20" width="218" height="97" filterUnits="userSpaceOnUse" color-interpolation-filters="sRGB">
<feFlood flood-opacity="0" result="BackgroundImageFix"/>
<feGaussianBlur in="BackgroundImageFix" stdDeviation="10"/>
<feComposite in2="SourceAlpha" operator="in" result="effect1_backgroundBlur_1_503"/>
<feBlend mode="normal" in="SourceGraphic" in2="effect1_backgroundBlur_1_503" result="shape"/>
</filter>
</defs>
</svg>
