<svg width="64" height="64" viewBox="0 0 64 64" fill="none" xmlns="http://www.w3.org/2000/svg">
<g id="Group">
<g id="Group_2">
<path id="Path" d="M32.0027 25V22.6667" stroke="white" stroke-width="3" stroke-linecap="round" stroke-linejoin="round"/>
<path id="Path_2" d="M32.0027 39V41.3333" stroke="white" stroke-width="3" stroke-linecap="round" stroke-linejoin="round"/>
<path id="Path_3" d="M27.9547 37.3333C28.56 38.3226 29.592 39.008 30.8373 39.008H32.0053H33.3947C35.2053 39.008 36.6693 37.5413 36.6693 35.7333C36.6693 34.2293 35.6453 32.92 34.1893 32.552L29.816 31.4533C28.3627 31.088 27.336 29.776 27.336 28.272C27.336 26.4613 28.8027 24.9973 30.6107 24.9973H32H33.168C34.4133 24.9973 35.4427 25.6773 36.048 26.664" stroke="white" stroke-width="3" stroke-linecap="round" stroke-linejoin="round"/>
<path id="Path_4" fill-rule="evenodd" clip-rule="evenodd" d="M52.8107 48.568V48.568C46.1307 47.232 39.24 47.3974 32.632 49.048L32 49.208C24.976 50.9627 17.6507 51.1387 10.552 49.7174L10.144 49.6347C8.896 49.3867 8 48.2907 8 47.0214V18.1174C8 16.4347 9.53867 15.1734 11.1893 15.5014V15.5014C17.8693 16.8374 24.76 16.672 31.368 15.0214L32.6293 14.7067C39.2373 13.056 46.1307 12.8907 52.808 14.2267L53.8533 14.4347C55.104 14.6854 56 15.7787 56 17.0507V45.9547C56 47.6374 54.4613 48.8987 52.8107 48.568V48.568Z" stroke="white" stroke-width="3" stroke-linecap="round" stroke-linejoin="round"/>
</g>
</g>
</svg>
