<svg width="31" height="49" viewBox="0 0 31 49" fill="none" xmlns="http://www.w3.org/2000/svg">
<g clip-path="url(#clip0_1_1297)">
<path d="M0.00216043 35.6955V31.6955C6.45827 30.8433 11.1892 33.765 15.0842 38.2346C17.6987 36.3389 19.8507 34.3042 22.4118 33.1042C24.8128 31.9737 27.6585 31.7302 30.7532 30.9824C30.8599 32.8781 30.931 34.0955 30.9844 35.2433C20.5621 37.6781 18.5346 39.6955 17.4319 48.7563C16.2403 48.8259 14.9953 48.8955 13.4479 48.9824C13.1456 40.6172 8.93045 36.0607 -0.015625 35.6781L0.00216043 35.6955Z" fill="white"/>
<path d="M0.00216043 15.713V11.713C6.45827 10.8609 11.1892 13.7826 15.0842 18.2522C17.6987 16.3565 19.8507 14.3217 22.4118 13.1217C24.8128 11.9913 27.6585 11.7478 30.7532 11C30.8599 12.8957 30.931 14.113 30.9844 15.2609C20.5621 17.6957 18.5346 19.713 17.4319 28.7739C16.2403 28.8435 14.9953 28.913 13.4479 29C13.1456 20.6348 8.93045 16.0783 -0.015625 15.6957L0.00216043 15.713Z" fill="white"/>
</g>
<defs>
<clipPath id="clip0_1_1297">
<rect width="31" height="49" fill="white"/>
</clipPath>
</defs>
</svg>
