<svg xmlns="http://www.w3.org/2000/svg" width="704" height="329" viewBox="0 0 704 329" fill="none">
  <g filter="url(#filter0_b_1_774)">
    <mask id="path-1-inside-1_1_774" fill="white">
      <path fill-rule="evenodd" clip-rule="evenodd" d="M219 0H634L704 74.9296V329H0V121L219 0Z"/>
    </mask>
    <path fill-rule="evenodd" clip-rule="evenodd" d="M219 0H634L704 74.9296V329H0V121L219 0Z" fill="black" fill-opacity="0.3"/>
    <path d="M634 0L634.731 -0.682661L634.434 -1H634V0ZM219 0V-1H218.742L218.516 -0.875286L219 0ZM704 74.9296H705V74.5351L704.731 74.2469L704 74.9296ZM704 329V330H705V329H704ZM0 329H-1V330H0V329ZM0 121L-0.483606 120.125L-1 120.41V121H0ZM634 -1H219V1H634V-1ZM704.731 74.2469L634.731 -0.682661L633.269 0.682661L703.269 75.6122L704.731 74.2469ZM705 329V74.9296H703V329H705ZM0 330H704V328H0V330ZM-1 121V329H1V121H-1ZM0.483606 121.875L219.484 0.875286L218.516 -0.875286L-0.483606 120.125L0.483606 121.875Z" fill="white" mask="url(#path-1-inside-1_1_774)"/>
  </g>
  <defs>
    <filter id="filter0_b_1_774" x="-20" y="-20" width="744" height="369" filterUnits="userSpaceOnUse" color-interpolation-filters="sRGB">
      <feFlood flood-opacity="0" result="BackgroundImageFix"/>
      <feGaussianBlur in="BackgroundImageFix" stdDeviation="10"/>
      <feComposite in2="SourceAlpha" operator="in" result="effect1_backgroundBlur_1_774"/>
      <feBlend mode="normal" in="SourceGraphic" in2="effect1_backgroundBlur_1_774" result="shape"/>
    </filter>
  </defs>
</svg>