<svg xmlns="http://www.w3.org/2000/svg" width="535" height="593" viewBox="0 0 535 593" fill="none">
  <path fill-rule="evenodd" clip-rule="evenodd" d="M463.606 147.235C424.174 81.499 361.852 34.4833 287.636 14.5973C240.771 2.03982 191.43 -2.54589 144.949 1.34643C94.343 5.57798 48.7436 19.3097 9.4174 42.1604C-20.9594 59.8122 -46.9592 82.7235 -67.8534 110.258C-90.4099 139.956 -107.123 175.247 -117.576 215.138C-136.859 288.746 -118.285 369.322 -65.2894 442.074C-15.364 510.588 57.7984 561.814 135.436 582.617C191.563 597.656 249.538 595.868 303.447 578.013C308.989 576.579 314.477 574.989 319.907 573.245C323.945 572.234 327.958 571.142 331.944 569.971C360.332 563.549 387.323 553.387 411.489 539.919C439.779 524.139 463.943 504.202 483.268 480.651C503.308 456.32 517.889 427.969 526.025 397.516C535.035 363.892 536.786 329.019 531.247 293.91C525.837 259.56 513.711 226.503 495.211 195.651C491.345 189.207 487.244 182.928 482.913 176.819C479.844 171.83 476.634 166.943 473.286 162.162C470.197 157.074 466.969 152.097 463.606 147.235ZM480.545 174.803C480.751 175.087 480.956 175.371 481.16 175.656C482.371 177.597 483.562 179.555 484.731 181.529C522.938 246.035 533.691 319.961 515.009 389.683C497.734 454.155 454.542 508.659 393.375 543.146C374.184 553.97 353.762 562.559 332.549 568.867C347.456 563.323 361.896 556.58 375.799 548.663C440.737 511.684 486.866 452.605 505.703 382.307C524.411 312.488 515.453 239.179 480.545 174.803ZM473.148 163.824C472.641 162.98 472.13 162.139 471.615 161.3L471.461 161.084L471.317 160.881C471.655 161.517 471.991 162.154 472.324 162.792C472.599 163.136 472.874 163.48 473.148 163.824ZM474.062 166.175C474.724 167.023 475.382 167.875 476.035 168.731C513.831 234.432 524.041 310.102 504.761 382.055C485.994 452.097 440.021 510.964 375.316 547.817C358.365 557.471 340.487 565.357 321.999 571.438C321.575 571.52 321.151 571.601 320.727 571.681C333.642 566.485 346.276 560.339 358.546 553.253C426.557 513.975 475.209 450.572 495.537 374.707C514.428 304.202 506.757 230.79 474.062 166.175ZM468.357 157.958C467.502 156.399 466.634 154.847 465.752 153.304C425.264 99.9759 367.592 61.6241 299.949 43.4993C297.535 42.8526 295.157 42.2412 292.736 41.6516C141.219 4.6516 -32.7552 47.5988 -79.8612 226.959C-119.436 377.576 9.91869 527.986 150.756 568.768C152.892 569.388 155.045 569.987 157.182 570.56L157.168 570.556C207.388 584.012 259.441 585.32 308.331 575.007C309.331 574.655 310.329 574.298 311.325 573.935C304.793 574.974 298.208 575.816 291.586 576.459C246.852 580.797 201.917 576.302 158.076 563.118C87.0538 541.759 22.1206 495.207 -20.0729 435.4C-64.9656 371.767 -79.9476 299.724 -62.2667 232.538C-51.3212 190.916 -32.8379 155.238 -7.33461 126.485C16.0762 100.094 45.3714 79.5292 79.7302 65.3573C141.389 39.9292 218.067 35.8626 295.631 53.9077C299.407 54.7816 303.164 55.7207 306.903 56.725C346.205 67.2557 382.228 84.2981 414.123 107.506C434.488 122.315 452.624 139.196 468.357 157.958ZM314.316 572.828C267.27 580.75 217.407 578.38 168.771 565.348L168.753 565.343C165.255 564.406 161.768 563.415 158.291 562.37C21.0996 521.109 -99.9637 378.81 -61.5177 232.735C-13.7597 51.1073 160.618 23.2959 295.447 54.6639C299.24 55.5473 303.003 56.4891 306.735 57.4892C372.837 75.201 429.396 111.275 470.132 161.247C503.728 224.45 514.442 300 494.499 374.429C469.111 469.177 399.79 540.657 314.316 572.828ZM341.082 567.128C359.407 561.108 377.088 553.362 393.833 543.919C455.18 509.31 498.52 454.613 515.857 389.91C534.044 322.037 524.431 250.201 488.832 186.878C490.797 189.899 492.709 192.959 494.569 196.06C532.295 258.97 543.205 330.436 525.284 397.317C509.379 456.676 468.85 507.084 411.137 539.244C389.238 551.446 365.678 560.76 341.082 567.128ZM406.745 93.9047C427.804 109.561 446.423 127.538 462.413 147.61C461.844 146.665 461.27 145.722 460.69 144.783C420.637 88.4015 362.208 47.9573 293.505 29.5483C292.353 29.2397 291.212 28.934 290.052 28.6418C137.618 -10.3554 -48.9025 33.2354 -98.1988 221.183C-139.592 378.976 -4.18255 534.393 143.24 575.174C144.402 575.5 145.569 575.82 146.73 576.131C197.509 589.737 250.762 589.997 300.628 577.599C301.041 577.466 301.455 577.332 301.867 577.197C252.678 586.461 200.561 584.108 150.514 569.616C77.2792 548.407 9.60631 500.289 -35.1507 437.597C-82.7464 370.938 -98.9282 296.049 -80.7171 226.733C-33.4534 46.7984 141.01 3.69398 292.946 40.7989C295.367 41.3885 297.783 42.0101 300.165 42.6484C339.243 53.1191 375.06 70.339 406.745 93.9047ZM452.393 132.076C414.264 76.8372 357.118 34.3271 287.358 15.635C187.253 -11.188 86.1445 -1.18214 9.95586 43.0881C-53.7119 80.0827 -96.2721 138.06 -116.539 215.409C-158.369 375.091 -17.8615 540.429 135.714 581.579C186.216 595.111 237.234 594.527 284.56 582.257C278.056 583.502 271.486 584.539 264.853 585.368C224.034 590.471 183.034 587.34 142.98 576.116C67.5445 555.246 -2.88017 505.607 -50.2439 439.93C-100.531 370.199 -117.894 292.426 -99.1409 220.934C-76.2284 133.59 -22.1926 70.3625 57.1331 38.0623C125.241 10.3271 208.049 6.64685 290.294 27.6978C291.449 27.996 292.61 28.296 293.758 28.6037C357.654 45.7247 412.69 81.8291 452.393 132.076Z" fill="url(#paint0_linear_1_1196)" fill-opacity="0.2"/>
  <defs>
    <linearGradient id="paint0_linear_1_1196" x1="204.702" y1="0" x2="335.387" y2="186.17" gradientUnits="userSpaceOnUse">
      <stop stop-color="white"/>
      <stop offset="1" stop-color="white" stop-opacity="0"/>
    </linearGradient>
  </defs>
</svg>