<svg xmlns="http://www.w3.org/2000/svg" width="597" height="656" viewBox="0 0 597 656" fill="none">
  <path fill-rule="evenodd" clip-rule="evenodd" d="M588.7 400.512C606.167 325.872 594.169 248.732 554.745 182.784C529.849 141.14 497.626 103.493 461.553 73.9242C422.283 41.7258 379.991 19.8327 335.854 8.85278C301.759 0.372325 267.145 -1.28528 232.976 3.93045C196.107 9.54153 159.539 23.2358 124.261 44.5914C59.1695 83.9987 16.3985 154.768 3.78279 243.886C-8.08635 327.826 8.76116 415.536 50.0033 484.524C79.8191 534.399 122.677 573.482 173.804 598.201C178.78 601.03 183.826 603.71 188.938 606.239C192.541 608.325 196.181 610.336 199.858 612.27C224.705 627.426 251.154 638.926 277.878 646.084C309.171 654.455 340.397 656.97 370.665 653.52C401.991 650.009 432.197 639.812 459.241 623.618C489.118 605.757 514.657 581.945 535.126 552.888C555.16 524.465 569.472 492.295 577.675 457.269C579.387 449.952 580.816 442.59 581.96 435.189C583.231 429.471 584.33 423.728 585.256 417.966C586.581 412.163 587.729 406.343 588.7 400.512ZM581.665 432.093C581.614 432.44 581.563 432.787 581.512 433.133C581.029 435.37 580.521 437.604 579.985 439.836C562.496 512.739 518.742 573.289 456.787 610.326C399.498 644.574 330.545 653.623 262.629 635.788C241.318 630.195 220.679 622.141 201.061 611.899C215.621 618.299 230.68 623.513 246.172 627.51C318.531 646.182 392.776 635.895 455.243 598.552C517.284 561.463 561.897 502.606 581.665 432.093ZM583.999 419.063C584.223 418.103 584.442 417.144 584.655 416.183L584.696 415.921L584.734 415.676C584.534 416.367 584.331 417.058 584.126 417.748C584.085 418.186 584.043 418.625 583.999 419.063ZM583.018 421.387C582.903 422.456 582.782 423.525 582.654 424.594C564.038 498.07 518.68 559.493 454.743 597.715C392.503 634.923 318.518 645.167 246.414 626.567C227.526 621.694 209.202 614.906 191.698 606.399C191.337 606.163 190.976 605.926 190.615 605.688C203.503 610.95 216.852 615.336 230.592 618.792C306.758 637.954 385.824 626.319 453.238 586.018C515.888 548.565 561.496 490.53 583.018 421.387ZM584.644 411.516C585.117 409.802 585.574 408.084 586.015 406.362C594.084 339.893 579.392 272.209 543.459 212.102C542.177 209.958 540.895 207.863 539.568 205.754C456.574 73.6989 301.796 -16.6072 143.102 79.335C9.82593 159.89 -2.05251 357.917 70.6426 485.251C71.7437 487.183 72.8718 489.112 74.0072 491.011L73.9999 490.999C100.677 535.624 137.13 572.806 179.402 599.444C180.365 599.888 181.33 600.326 182.297 600.759C176.886 596.957 171.573 592.977 166.372 588.827C131.243 560.794 102.119 526.281 79.8308 486.292C43.7234 421.51 29.5288 342.885 40.8846 270.579C52.9677 193.647 92.3756 131.504 151.846 95.5902C188.682 73.3361 226.791 60.5967 265.116 57.7155C300.295 55.0728 335.642 60.709 370.171 74.4597C432.133 99.1389 490.003 149.609 533.112 216.567C535.214 219.823 537.258 223.113 539.242 226.437C560.119 261.361 574.11 298.675 580.845 337.541C585.151 362.35 586.415 387.094 584.644 411.516ZM185.216 602.047C145.931 574.976 111.791 538.557 85.9543 495.339L85.9451 495.323C84.0869 492.215 82.2739 489.076 80.5059 485.905C10.7613 360.766 22.943 174.334 152.247 96.2531C312.988 -0.862946 457.517 100.589 532.454 216.981C534.561 220.256 536.607 223.552 538.589 226.869C573.703 285.607 589.183 350.881 583.628 415.113C563.737 483.871 518.824 545.559 452.687 585.096C368.493 635.428 268.967 638.468 185.216 602.047ZM208.396 616.591C225.741 625.03 243.825 631.781 262.419 636.662C330.55 654.535 399.743 645.451 457.238 611.08C517.55 575.024 560.668 516.768 579.205 446.531C578.512 450.066 577.754 453.595 576.93 457.115C560.206 528.538 518.278 587.431 458.847 622.96C406.101 654.492 341.913 662.455 278.095 645.355C253.88 638.866 230.484 629.146 208.396 616.591ZM585.019 322.641C589.234 348.542 590.082 374.409 587.583 399.95C587.833 398.875 588.077 397.799 588.315 396.721C598.823 328.364 585.043 258.651 548.547 197.602C547.935 196.578 547.329 195.564 546.7 194.547C464.439 60.4204 300.207 -38.1599 133.961 62.4215C-5.6173 146.861 -16.6355 352.698 60.7874 484.616C61.3942 485.658 62.0089 486.701 62.6261 487.733C89.6005 532.855 127.644 570.12 172.069 595.941C172.458 596.133 172.848 596.325 173.238 596.516C131.48 568.916 95.71 530.939 69.8786 485.691C32.0787 419.476 17.0075 337.82 28.5324 261.658C40.7824 180.671 81.31 115.651 142.644 78.5771C301.852 -17.6679 457.091 72.866 540.312 205.288C541.64 207.397 542.941 209.525 544.207 211.642C564.965 246.366 578.684 283.665 585.019 322.641ZM591.207 381.823C602.299 315.625 590.88 245.324 553.823 183.335C500.646 94.3823 421.105 31.1652 335.594 9.89351C264.137 -7.88248 193.22 4.09898 124.817 45.5068C-16.3901 130.999 -30.6561 347.506 50.9254 483.973C77.7527 528.849 114.779 563.952 157.292 588.097C151.757 584.462 146.318 580.632 140.981 576.608C108.129 551.85 80.8796 521.056 59.9444 485.111C20.3298 417.607 4.34229 332.943 16.0749 252.823C28.5316 167.758 70.2196 99.8447 133.458 61.587C210.719 14.8462 293.528 7.08657 372.956 39.1342C441.154 66.6477 503.154 121.663 547.531 194.038C548.152 195.056 548.777 196.08 549.386 197.1C583.329 253.878 597.694 318.113 591.207 381.823Z" fill="url(#paint0_linear_1_446)" fill-opacity="0.2"/>
  <defs>
    <linearGradient id="paint0_linear_1_446" x1="505.38" y1="114.562" x2="469.558" y2="339.183" gradientUnits="userSpaceOnUse">
      <stop stop-color="white"/>
      <stop offset="1" stop-color="white" stop-opacity="0"/>
    </linearGradient>
  </defs>
</svg>