<svg width="514" height="228" viewBox="0 0 514 228" fill="none" xmlns="http://www.w3.org/2000/svg">
<g opacity="0.21">
<mask id="path-1-outside-1_1_496" maskUnits="userSpaceOnUse" x="-2" y="0" width="987" height="228" fill="black">
<rect fill="white" x="-2" width="987" height="228"/>
<path d="M213.147 113.656L339.081 226H252.709L169.961 152.312L87.2128 226H0.840836L126.473 113.656L0.840836 1.31199H87.2128L169.961 75L252.709 1.31199H339.081L213.147 113.656ZM540.951 226H354.919V1.31199H540.951H566.923C611.921 0.103992 634.571 25.17 634.571 63.222C634.571 89.496 626.719 103.69 613.129 111.24C633.665 116.978 646.349 131.172 646.349 164.09C646.349 202.142 623.699 227.208 578.701 226H540.951ZM423.171 179.492H556.353C570.547 180.096 578.097 172.546 577.795 158.352C578.097 144.158 570.547 136.608 556.353 136.91H423.171V179.492ZM544.575 47.82H423.171V90.402H544.575C558.769 90.704 566.319 83.154 566.017 69.262C566.319 55.068 558.769 47.518 544.575 47.82ZM855.487 113.656L981.421 226H895.049L812.301 152.312L729.553 226H643.181L768.813 113.656L643.181 1.31199H729.553L812.301 75L895.049 1.31199H981.421L855.487 113.656Z"/>
</mask>
<path d="M213.147 113.656L212.481 112.91L211.645 113.656L212.481 114.402L213.147 113.656ZM339.081 226V227H341.704L339.747 225.254L339.081 226ZM252.709 226L252.044 226.747L252.328 227H252.709V226ZM169.961 152.312L170.626 151.565L169.961 150.973L169.296 151.565L169.961 152.312ZM87.2128 226V227H87.5936L87.8779 226.747L87.2128 226ZM0.840836 226L0.174251 225.255L-1.77763 227H0.840836V226ZM126.473 113.656L127.139 114.401L127.973 113.656L127.139 112.911L126.473 113.656ZM0.840836 1.31199V0.311995H-1.77763L0.174251 2.05742L0.840836 1.31199ZM87.2128 1.31199L87.8779 0.565187L87.5936 0.311995H87.2128V1.31199ZM169.961 75L169.296 75.7468L169.961 76.339L170.626 75.7468L169.961 75ZM252.709 1.31199V0.311995H252.328L252.044 0.565187L252.709 1.31199ZM339.081 1.31199L339.747 2.05822L341.704 0.311995H339.081V1.31199ZM212.481 114.402L338.415 226.746L339.747 225.254L213.813 112.91L212.481 114.402ZM339.081 225H252.709V227H339.081V225ZM253.374 225.253L170.626 151.565L169.296 153.059L252.044 226.747L253.374 225.253ZM169.296 151.565L86.5478 225.253L87.8779 226.747L170.626 153.059L169.296 151.565ZM87.2128 225H0.840836V227H87.2128V225ZM1.50742 226.745L127.139 114.401L125.806 112.911L0.174251 225.255L1.50742 226.745ZM127.139 112.911L1.50742 0.566566L0.174251 2.05742L125.806 114.401L127.139 112.911ZM0.840836 2.31199H87.2128V0.311995H0.840836V2.31199ZM86.5478 2.0588L169.296 75.7468L170.626 74.2532L87.8779 0.565187L86.5478 2.0588ZM170.626 75.7468L253.374 2.0588L252.044 0.565187L169.296 74.2532L170.626 75.7468ZM252.709 2.31199H339.081V0.311995H252.709V2.31199ZM338.415 0.565771L212.481 112.91L213.813 114.402L339.747 2.05822L338.415 0.565771ZM354.919 226H353.919V227H354.919V226ZM354.919 1.31199V0.311995H353.919V1.31199H354.919ZM566.923 1.31199V2.31199H566.937L566.95 2.31163L566.923 1.31199ZM613.129 111.24L612.644 110.366L610.516 111.548L612.86 112.203L613.129 111.24ZM578.701 226L578.728 225L578.715 225H578.701V226ZM423.171 179.492H422.171V180.492H423.171V179.492ZM556.353 179.492L556.396 178.493L556.375 178.492H556.353V179.492ZM577.795 158.352L576.796 158.331L576.795 158.352L576.796 158.373L577.795 158.352ZM556.353 136.91V137.91H556.364L556.375 137.91L556.353 136.91ZM423.171 136.91V135.91H422.171V136.91H423.171ZM544.575 47.82V48.82H544.586L544.597 48.8198L544.575 47.82ZM423.171 47.82V46.82H422.171V47.82H423.171ZM423.171 90.402H422.171V91.402H423.171V90.402ZM544.575 90.402L544.597 89.4022L544.586 89.402H544.575V90.402ZM566.017 69.262L565.018 69.2407L565.017 69.2622L565.018 69.2837L566.017 69.262ZM540.951 225H354.919V227H540.951V225ZM355.919 226V1.31199H353.919V226H355.919ZM354.919 2.31199H540.951V0.311995H354.919V2.31199ZM540.951 2.31199H566.923V0.311995H540.951V2.31199ZM566.95 2.31163C589.262 1.71265 605.885 7.62816 616.928 18.2647C627.971 28.9014 633.571 44.3918 633.571 63.222H635.571C635.571 44.0001 629.847 27.9316 618.315 16.8243C606.784 5.71683 589.583 -0.296667 566.896 0.312355L566.95 2.31163ZM633.571 63.222C633.571 76.2675 631.621 86.2259 628.042 93.8265C624.472 101.407 619.262 106.689 612.644 110.366L613.615 112.114C620.587 108.241 626.097 102.651 629.851 94.6785C633.596 86.7261 635.571 76.4505 635.571 63.222H633.571ZM612.86 112.203C622.967 115.027 631.044 119.9 636.615 128.037C642.199 136.193 645.349 147.748 645.349 164.09H647.349C647.349 147.514 644.157 135.513 638.265 126.908C632.361 118.284 623.828 113.191 613.398 110.277L612.86 112.203ZM645.349 164.09C645.349 182.92 639.749 198.411 628.706 209.047C617.663 219.684 601.04 225.599 578.728 225L578.674 227C601.361 227.609 618.562 221.595 630.093 210.488C641.625 199.38 647.349 183.312 647.349 164.09H645.349ZM578.701 225H540.951V227H578.701V225ZM423.171 180.492H556.353V178.492H423.171V180.492ZM556.311 180.491C563.583 180.801 569.329 179.026 573.214 175.182C577.096 171.34 578.95 165.598 578.795 158.331L576.796 158.373C576.943 165.3 575.173 170.43 571.807 173.76C568.443 177.089 563.317 178.787 556.396 178.493L556.311 180.491ZM578.795 158.373C578.95 151.104 577.095 145.366 573.217 141.488C569.34 137.61 563.601 135.756 556.332 135.91L556.375 137.91C563.3 137.762 568.433 139.532 571.803 142.902C575.173 146.272 576.943 151.406 576.796 158.331L578.795 158.373ZM556.353 135.91H423.171V137.91H556.353V135.91ZM422.171 136.91V179.492H424.171V136.91H422.171ZM544.575 46.82H423.171V48.82H544.575V46.82ZM422.171 47.82V90.402H424.171V47.82H422.171ZM423.171 91.402H544.575V89.402H423.171V91.402ZM544.554 91.4018C551.823 91.5564 557.559 89.702 561.436 85.8655C565.314 82.0273 567.172 76.3641 567.017 69.2402L565.018 69.2837C565.165 76.0519 563.398 81.1097 560.029 84.4439C556.658 87.78 551.522 89.5496 544.597 89.4022L544.554 91.4018ZM567.017 69.2833C567.172 62.0142 565.317 56.2757 561.439 52.3979C557.562 48.52 551.823 46.6656 544.554 46.8202L544.597 48.8198C551.522 48.6724 556.655 50.4419 560.025 53.8121C563.395 57.1823 565.165 62.3157 565.018 69.2407L567.017 69.2833ZM855.487 113.656L854.821 112.91L853.984 113.656L854.821 114.402L855.487 113.656ZM981.421 226V227H984.044L982.086 225.254L981.421 226ZM895.049 226L894.384 226.747L894.668 227H895.049V226ZM812.301 152.312L812.966 151.565L812.301 150.973L811.636 151.565L812.301 152.312ZM729.553 226V227H729.933L730.218 226.747L729.553 226ZM643.181 226L642.514 225.255L640.562 227H643.181V226ZM768.813 113.656L769.479 114.401L770.313 113.656L769.479 112.911L768.813 113.656ZM643.181 1.31199V0.311995H640.562L642.514 2.05742L643.181 1.31199ZM729.553 1.31199L730.218 0.565187L729.933 0.311995H729.553V1.31199ZM812.301 75L811.636 75.7468L812.301 76.339L812.966 75.7468L812.301 75ZM895.049 1.31199V0.311995H894.668L894.384 0.565187L895.049 1.31199ZM981.421 1.31199L982.086 2.05822L984.044 0.311995H981.421V1.31199ZM854.821 114.402L980.755 226.746L982.086 225.254L856.152 112.91L854.821 114.402ZM981.421 225H895.049V227H981.421V225ZM895.714 225.253L812.966 151.565L811.636 153.059L894.384 226.747L895.714 225.253ZM811.636 151.565L728.888 225.253L730.218 226.747L812.966 153.059L811.636 151.565ZM729.553 225H643.181V227H729.553V225ZM643.847 226.745L769.479 114.401L768.146 112.911L642.514 225.255L643.847 226.745ZM769.479 112.911L643.847 0.566566L642.514 2.05742L768.146 114.401L769.479 112.911ZM643.181 2.31199H729.553V0.311995H643.181V2.31199ZM728.888 2.0588L811.636 75.7468L812.966 74.2532L730.218 0.565187L728.888 2.0588ZM812.966 75.7468L895.714 2.0588L894.384 0.565187L811.636 74.2532L812.966 75.7468ZM895.049 2.31199H981.421V0.311995H895.049V2.31199ZM980.755 0.565771L854.821 112.91L856.152 114.402L982.086 2.05822L980.755 0.565771Z" fill="white" mask="url(#path-1-outside-1_1_496)"/>
</g>
</svg>
