<svg width="37" height="21" viewBox="0 0 37 21" fill="none" xmlns="http://www.w3.org/2000/svg">
<path d="M1.02707 18.6762C0.351374 17.6626 0 16.2302 0 14.3788V5.77042C0 3.93253 0.351401 2.51358 1.05412 1.51355C1.75684 0.513521 2.93252 0 4.5677 0C6.20288 0 7.40561 0.500007 8.10833 1.51355C8.81106 2.51358 9.16246 3.93253 9.16246 5.77042V14.3788C9.16246 16.2437 8.8246 17.6762 8.13539 18.6897C7.45969 19.6897 6.25692 20.2033 4.55417 20.2033C2.85142 20.2033 1.68922 19.6897 1.00001 18.6897L1.02707 18.6762ZM7.09479 18.0005C7.59481 17.2032 7.83812 16.068 7.83812 14.6085V5.58122C7.83812 4.12172 7.59481 3.00007 7.09479 2.20275C6.59478 1.40543 5.75694 1.01354 4.58123 1.01354C3.40552 1.01354 2.58121 1.41896 2.08119 2.21628C1.58118 3.0136 1.32433 4.14875 1.32433 5.58122V14.6085C1.32433 16.0545 1.58118 17.1762 2.08119 17.987C2.58121 18.7978 3.41903 19.2032 4.58123 19.2032C5.74342 19.2032 6.60829 18.7978 7.09479 18.0005Z" fill="white" fill-opacity="0.24"/>
<path d="M14.8111 18.6762C14.1354 17.6626 13.7841 16.2302 13.7841 14.3788V5.77042C13.7841 3.93253 14.1355 2.51358 14.8382 1.51355C15.5409 0.513521 16.7166 0 18.3518 0C19.9869 0 21.1897 0.500007 21.8924 1.51355C22.5951 2.51358 22.9465 3.93253 22.9465 5.77042V14.3788C22.9465 16.2437 22.6087 17.6762 21.9194 18.6897C21.2438 19.6897 20.041 20.2033 18.3382 20.2033C16.6355 20.2033 15.4734 19.6897 14.7842 18.6897L14.8111 18.6762ZM20.8788 18.0005C21.3789 17.2032 21.6222 16.068 21.6222 14.6085V5.58122C21.6222 4.12172 21.3789 3.00007 20.8788 2.20275C20.3788 1.40543 19.541 1.01354 18.3653 1.01354C17.1896 1.01354 16.3653 1.41896 15.8652 2.21628C15.3652 3.0136 15.1086 4.14875 15.1086 5.58122V14.6085C15.1086 16.0545 15.3652 17.1762 15.8652 17.987C16.3653 18.7978 17.2031 19.2032 18.3653 19.2032C19.5275 19.2032 20.3923 18.7978 20.8788 18.0005Z" fill="white" fill-opacity="0.24"/>
<path d="M27.4872 17.3921H28.9198V19.9192H27.4872V17.3921Z" fill="white" fill-opacity="0.24"/>
<path d="M35.4471 1.99981C35.1903 2.3782 34.7579 2.70254 34.1768 2.99984C33.5822 3.29715 33.0687 3.49984 32.6362 3.63498V2.51334C33.1092 2.3782 33.6362 2.10793 34.2172 1.68899C34.7983 1.27006 35.2849 0.783562 35.6498 0.229492H36.7714V19.9327H35.4606V1.99981H35.4471Z" fill="white" fill-opacity="0.24"/>
</svg>
