<svg xmlns="http://www.w3.org/2000/svg" width="161" height="50" viewBox="0 0 161 50" fill="none">
  <path d="M1.02707 47.6762C0.351374 46.6627 0 45.2302 0 43.3788V34.7705C0 32.9326 0.351318 31.5136 1.05404 30.5135C1.75676 29.5135 2.93252 29 4.5677 29C6.20288 29 7.40561 29.5 8.10833 30.5135C8.81106 31.5271 9.16237 32.9326 9.16237 34.7705V43.3788C9.16237 45.2437 8.82451 46.6762 8.1353 47.6897C7.45961 48.6898 6.25692 49.2033 4.55417 49.2033C2.85142 49.2033 1.68922 48.6898 1.00001 47.6897L1.02707 47.6762ZM7.09479 47.0005C7.59481 46.2032 7.83804 45.068 7.83804 43.6085V34.5812C7.83804 33.1217 7.59481 32.0001 7.09479 31.2028C6.59478 30.4055 5.75694 30.0135 4.58123 30.0135C3.40552 30.0135 2.58112 30.419 2.08111 31.2163C1.5811 32.0136 1.32433 33.1488 1.32433 34.5812V43.6085C1.32433 45.0545 1.5811 46.1761 2.08111 46.987C2.58112 47.7978 3.41903 48.2033 4.58123 48.2033C5.74342 48.2033 6.60829 47.7978 7.09479 47.0005Z" fill="white" fill-opacity="0.24"/>
  <path d="M14.8249 47.6762C14.1492 46.6627 13.7979 45.2302 13.7979 43.3788V34.7705C13.7979 32.9326 14.1493 31.5136 14.852 30.5135C15.5547 29.5135 16.7304 29 18.3656 29C20.0007 29 21.2035 29.5 21.9062 30.5135C22.6089 31.5136 22.9603 32.9326 22.9603 34.7705V43.3788C22.9603 45.2437 22.6224 46.6762 21.9332 47.6897C21.2575 48.6898 20.0548 49.2033 18.352 49.2033C16.6493 49.2033 15.4872 48.6898 14.7979 47.6897L14.8249 47.6762ZM20.8926 47.0005C21.3927 46.2032 21.636 45.068 21.636 43.6085V34.5812C21.636 33.1217 21.3927 32.0001 20.8926 31.2028C20.3926 30.4055 19.5548 30.0135 18.3791 30.0135C17.2034 30.0135 16.3791 30.419 15.879 31.2163C15.379 32.0136 15.1223 33.1488 15.1223 34.5812V43.6085C15.1223 45.0545 15.379 46.1761 15.879 46.987C16.3791 47.7978 17.2169 48.2033 18.3791 48.2033C19.5413 48.2033 20.4061 47.7978 20.8926 47.0005Z" fill="white" fill-opacity="0.24"/>
  <path d="M27.5005 46.3928H28.933V48.9199H27.5005V46.3928Z" fill="white" fill-opacity="0.24"/>
  <path d="M35.4471 31.0001C35.1904 31.3784 34.7579 31.7028 34.1768 32.0001C33.5822 32.2974 33.0687 32.5 32.6362 32.6352V31.5135C33.1092 31.3784 33.6363 31.1081 34.2174 30.6892C34.7985 30.2702 35.285 29.7838 35.6499 29.2297H36.7715V48.9329H35.4607V31.0001H35.4471Z" fill="white" fill-opacity="0.24"/>
  <path d="M45.1766 31.0001C44.9199 31.3784 44.4874 31.7028 43.9063 32.0001C43.3117 32.2974 42.7982 32.5 42.3657 32.6352V31.5135C42.8387 31.3784 43.3657 31.1081 43.9468 30.6892C44.5279 30.2702 45.0144 29.7838 45.3793 29.2297H46.501V48.9329H45.1902V31.0001H45.1766Z" fill="white" fill-opacity="0.24"/>
  <path d="M53.5964 47.6762C52.9207 46.6627 52.5693 45.2302 52.5693 43.3788V34.7705C52.5693 32.9326 52.9207 31.5136 53.6235 30.5135C54.3262 29.5135 55.5019 29 57.137 29C58.7722 29 59.9749 29.5 60.6777 30.5135C61.3804 31.5136 61.7318 32.9326 61.7318 34.7705V43.3788C61.7318 45.2437 61.3939 46.6762 60.7047 47.6897C60.029 48.6898 58.8263 49.2033 57.1235 49.2033C55.4208 49.2033 54.2586 48.6898 53.5694 47.6897L53.5964 47.6762ZM59.6641 47.0005C60.1641 46.2032 60.4075 45.068 60.4075 43.6085V34.5812C60.4075 33.1217 60.1641 32.0001 59.6641 31.2028C59.1641 30.4055 58.3263 30.0135 57.1506 30.0135C55.9749 30.0135 55.1505 30.419 54.6505 31.2163C54.1505 32.0136 53.8938 33.1488 53.8938 34.5812V43.6085C53.8938 45.0545 54.1505 46.1761 54.6505 46.987C55.1505 47.7978 55.9884 48.2033 57.1506 48.2033C58.3128 48.2033 59.1776 47.7978 59.6641 47.0005Z" fill="white" fill-opacity="0.24"/>
  <path d="M68.7049 31.0001C68.4481 31.3784 68.0157 31.7028 67.4346 32.0001C66.84 32.2974 66.3265 32.5 65.894 32.6352V31.5135C66.367 31.3784 66.894 31.1081 67.4751 30.6892C68.0562 30.2702 68.5427 29.7838 68.9076 29.2297H70.0293V48.9329H68.7184V31.0001H68.7049Z" fill="white" fill-opacity="0.24"/>
  <path d="M93 43H118.5L160.5 1" stroke="white" stroke-opacity="0.24"/>
</svg>