<svg xmlns="http://www.w3.org/2000/svg" width="71" height="21" viewBox="0 0 71 21" fill="none">
  <path d="M1.02707 18.6762C0.351374 17.6627 0 16.2302 0 14.3788V5.77046C0 3.93257 0.351318 2.51358 1.05404 1.51355C1.75676 0.513521 2.93252 0 4.5677 0C6.20288 0 7.40561 0.500007 8.10833 1.51355C8.81106 2.52709 9.16237 3.93257 9.16237 5.77046V14.3788C9.16237 16.2437 8.82451 17.6762 8.1353 18.6897C7.45961 19.6898 6.25692 20.2033 4.55417 20.2033C2.85142 20.2033 1.68922 19.6898 1.00001 18.6897L1.02707 18.6762ZM7.09479 18.0005C7.59481 17.2032 7.83804 16.068 7.83804 14.6085V5.58124C7.83804 4.12174 7.59481 3.00009 7.09479 2.20277C6.59478 1.40545 5.75694 1.01354 4.58123 1.01354C3.40552 1.01354 2.58112 1.41898 2.08111 2.2163C1.5811 3.01362 1.32433 4.14877 1.32433 5.58124V14.6085C1.32433 16.0545 1.5811 17.1761 2.08111 17.987C2.58112 18.7978 3.41903 19.2033 4.58123 19.2033C5.74342 19.2033 6.60829 18.7978 7.09479 18.0005Z" fill="white" fill-opacity="0.24"/>
  <path d="M14.825 18.6762C14.1493 17.6627 13.7979 16.2302 13.7979 14.3788V5.77046C13.7979 3.93257 14.1493 2.51358 14.852 1.51355C15.5547 0.513521 16.7304 0 18.3656 0C20.0008 0 21.2035 0.500007 21.9062 1.51355C22.6089 2.51358 22.9603 3.93257 22.9603 5.77046V14.3788C22.9603 16.2437 22.6225 17.6762 21.9333 18.6897C21.2576 19.6898 20.0548 20.2033 18.3521 20.2033C16.6493 20.2033 15.4872 19.6898 14.798 18.6897L14.825 18.6762ZM20.8927 18.0005C21.3927 17.2032 21.636 16.068 21.636 14.6085V5.58124C21.636 4.12174 21.3927 3.00009 20.8927 2.20277C20.3927 1.40545 19.5548 1.01354 18.3791 1.01354C17.2034 1.01354 16.3791 1.41898 15.8791 2.2163C15.3791 3.01362 15.1223 4.14877 15.1223 5.58124V14.6085C15.1223 16.0545 15.3791 17.1761 15.8791 17.987C16.3791 18.7978 17.2169 19.2033 18.3791 19.2033C19.5413 19.2033 20.4062 18.7978 20.8927 18.0005Z" fill="white" fill-opacity="0.24"/>
  <path d="M27.5005 17.3928H28.933V19.9199H27.5005V17.3928Z" fill="white" fill-opacity="0.24"/>
  <path d="M35.4472 2.00005C35.1905 2.37844 34.758 2.70276 34.1769 3.00007C33.5823 3.29737 33.0688 3.50004 32.6363 3.63518V2.5135C33.1093 2.37837 33.6364 2.10811 34.2175 1.68918C34.7986 1.27025 35.2851 0.783806 35.65 0.229736H36.7716V19.9329H35.4608V2.00005H35.4472Z" fill="white" fill-opacity="0.24"/>
  <path d="M45.1768 2.00005C44.92 2.37844 44.4876 2.70276 43.9065 3.00007C43.3119 3.29737 42.7983 3.50004 42.3659 3.63518V2.5135C42.8388 2.37837 43.3659 2.10811 43.947 1.68918C44.5281 1.27025 45.0146 0.783806 45.3794 0.229736H46.5011V19.9329H45.1903V2.00005H45.1768Z" fill="white" fill-opacity="0.24"/>
  <path d="M53.5964 18.6762C52.9207 17.6627 52.5693 16.2302 52.5693 14.3788V5.77046C52.5693 3.93257 52.9207 2.51358 53.6234 1.51355C54.3262 0.513521 55.5018 0 57.137 0C58.7722 0 59.9749 0.500007 60.6776 1.51355C61.3804 2.51358 61.7318 3.93257 61.7318 5.77046V14.3788C61.7318 16.2437 61.3939 17.6762 60.7047 18.6897C60.029 19.6898 58.8262 20.2033 57.1235 20.2033C55.4207 20.2033 54.2586 19.6898 53.5694 18.6897L53.5964 18.6762ZM59.6641 18.0005C60.1641 17.2032 60.4074 16.068 60.4074 14.6085V5.58124C60.4074 4.12174 60.1641 3.00009 59.6641 2.20277C59.1641 1.40545 58.3262 1.01354 57.1505 1.01354C55.9748 1.01354 55.1505 1.41898 54.6505 2.2163C54.1505 3.01362 53.8937 4.14877 53.8937 5.58124V14.6085C53.8937 16.0545 54.1505 17.1761 54.6505 17.987C55.1505 18.7978 55.9883 19.2033 57.1505 19.2033C58.3127 19.2033 59.1776 18.7978 59.6641 18.0005Z" fill="white" fill-opacity="0.24"/>
  <path d="M68.7051 2.00005C68.4483 2.37844 68.0159 2.70276 67.4348 3.00007C66.8402 3.29737 66.3267 3.50004 65.8942 3.63518V2.5135C66.3672 2.37837 66.8942 2.10811 67.4753 1.68918C68.0564 1.27025 68.5429 0.783806 68.9078 0.229736H70.0295V19.9329H68.7186V2.00005H68.7051Z" fill="white" fill-opacity="0.24"/>
</svg>